<svg version="1.1" id="Layer_1" xmlns="http://www.w3.org/2000/svg" xmlns:xlink="http://www.w3.org/1999/xlink" x="0px" y="0px"
	 width="100%" viewBox="0 0 512 512" enable-background="new 0 0 512 512" xml:space="preserve">
<path fill="rgba(255,255,255,0)" opacity="1.000000" stroke="none" 
	d="
M201.000000,513.000000 
	C134.361969,513.000000 67.723946,513.000000 1.042957,513.000000 
	C1.042957,342.435303 1.042957,171.870575 1.042957,1.000000 
	C100.355141,1.000000 199.710587,1.000000 299.387970,1.392379 
	C297.143799,2.189336 294.586700,2.666332 292.010071,2.986253 
	C279.252960,4.570224 267.213104,8.710756 256.010162,14.694274 
	C243.956863,21.131985 233.063660,29.212225 224.246323,40.060978 
	C215.601990,50.696861 208.749146,62.166759 203.966385,74.962189 
	C197.389389,92.557770 195.423950,110.928322 195.068924,129.493805 
	C194.744080,146.481277 195.005295,163.479874 194.990479,180.473541 
	C194.989227,181.911209 194.853531,183.348724 194.769409,185.000000 
	C173.141678,185.000000 151.840546,184.999985 130.539429,185.000015 
	C121.615036,185.000015 118.006210,188.611771 118.003136,197.607239 
	C117.994278,223.597580 118.175369,249.589676 117.916687,275.577454 
	C117.807907,286.505035 122.069489,291.017120 133.416946,291.005310 
	C152.243271,290.985748 171.069626,291.000000 189.895966,291.000000 
	C191.503281,291.000000 193.110580,291.000000 195.000000,291.000000 
	C195.000000,293.301270 195.000000,295.102905 195.000000,296.904541 
	C195.000000,363.046631 195.047165,429.188812 194.928421,495.330688 
	C194.916290,502.085754 195.375961,508.340912 201.000000,513.000000 
z"/>
<path fill="rgba(255,255,255,0)" opacity="1.000000" stroke="none" 
	d="
M390.000000,1.000000 
	C430.978851,1.000000 471.957733,1.000000 512.968262,1.000000 
	C512.968262,171.557571 512.968262,342.115143 512.968262,513.000000 
	C441.979431,513.000000 370.958374,513.000000 299.548645,512.656494 
	C302.638641,509.227142 304.117920,505.603760 304.106628,500.719177 
	C303.949280,432.579712 304.000000,364.439789 304.000000,296.299957 
	C304.000000,294.554993 304.000000,292.810059 304.000000,291.000000 
	C329.538879,291.000000 354.362183,291.195068 379.179932,290.908417 
	C389.788788,290.785919 392.739594,286.371277 392.858368,277.956421 
	C393.239319,250.972443 393.082306,223.979309 392.950043,196.990585 
	C392.910065,188.832047 387.523376,184.714264 380.377258,184.840607 
	C356.560760,185.261627 332.732178,185.000000 308.908234,185.000000 
	C307.319946,185.000000 305.731659,185.000000 305.000916,185.000000 
	C305.000916,163.961044 304.584564,143.554214 305.239349,123.181816 
	C305.452454,116.550522 308.230499,109.522438 315.167023,106.526772 
	C320.958008,104.025833 327.240173,101.521873 333.404327,101.246559 
	C349.698730,100.518791 366.052643,101.254555 382.371887,100.901100 
	C391.632660,100.700523 395.993317,97.151901 395.997070,87.286522 
	C396.006134,63.629181 395.840851,39.970036 396.107697,16.315704 
	C396.177673,10.111917 394.793182,5.010504 390.000000,1.000000 
z"/>
<path fill="#ffffff" opacity="1.000000" stroke="none" 
	d="
M389.531342,1.000000 
	C394.793182,5.010504 396.177673,10.111917 396.107697,16.315704 
	C395.840851,39.970036 396.006134,63.629181 395.997070,87.286522 
	C395.993317,97.151901 391.632660,100.700523 382.371887,100.901100 
	C366.052643,101.254555 349.698730,100.518791 333.404327,101.246559 
	C327.240173,101.521873 320.958008,104.025833 315.167023,106.526772 
	C308.230499,109.522438 305.452454,116.550522 305.239349,123.181816 
	C304.584564,143.554214 305.000916,163.961044 305.000916,185.000000 
	C305.731659,185.000000 307.319946,185.000000 308.908234,185.000000 
	C332.732178,185.000000 356.560760,185.261627 380.377258,184.840607 
	C387.523376,184.714264 392.910065,188.832047 392.950043,196.990585 
	C393.082306,223.979309 393.239319,250.972443 392.858368,277.956421 
	C392.739594,286.371277 389.788788,290.785919 379.179932,290.908417 
	C354.362183,291.195068 329.538879,291.000000 304.000000,291.000000 
	C304.000000,292.810059 304.000000,294.554993 304.000000,296.299957 
	C304.000000,364.439789 303.949280,432.579712 304.106628,500.719177 
	C304.117920,505.603760 302.638641,509.227142 299.080017,512.656494 
	C266.645782,513.000000 234.291550,513.000000 201.468658,513.000000 
	C195.375961,508.340912 194.916290,502.085754 194.928421,495.330688 
	C195.047165,429.188812 195.000000,363.046631 195.000000,296.904541 
	C195.000000,295.102905 195.000000,293.301270 195.000000,291.000000 
	C193.110580,291.000000 191.503281,291.000000 189.895966,291.000000 
	C171.069626,291.000000 152.243271,290.985748 133.416946,291.005310 
	C122.069489,291.017120 117.807907,286.505035 117.916687,275.577454 
	C118.175369,249.589676 117.994278,223.597580 118.003136,197.607239 
	C118.006210,188.611771 121.615036,185.000015 130.539429,185.000015 
	C151.840546,184.999985 173.141678,185.000000 194.769409,185.000000 
	C194.853531,183.348724 194.989227,181.911209 194.990479,180.473541 
	C195.005295,163.479874 194.744080,146.481277 195.068924,129.493805 
	C195.423950,110.928322 197.389389,92.557770 203.966385,74.962189 
	C208.749146,62.166759 215.601990,50.696861 224.246323,40.060978 
	C233.063660,29.212225 243.956863,21.131985 256.010162,14.694274 
	C267.213104,8.710756 279.252960,4.570224 292.010071,2.986253 
	C294.586700,2.666332 297.143799,2.189336 299.854950,1.392379 
	C329.687561,1.000000 359.375122,1.000000 389.531342,1.000000 
z"/>
</svg>